HIERARCHY
ROOT hip
{
	OFFSET 0.000000 0.000000 0.000000 
	CHANNELS 6 Xposition Yposition Zposition Xrotation Zrotation Yrotation
	JOINT abdomen
	{
		OFFSET 0.000000 3.402643 0.000000 
		CHANNELS 3 Xrotation Zrotation Yrotation
		JOINT chest
		{
			OFFSET 0.000000 8.438565 -0.680529 
			CHANNELS 3 Xrotation Zrotation Yrotation
			JOINT neck
			{
				OFFSET 0.000000 10.207942 -0.272212 
				CHANNELS 3 Xrotation Zrotation Yrotation
				JOINT head
				{
					OFFSET 0.000000 3.130431 0.000000 
					CHANNELS 3 Xrotation Zrotation Yrotation
					End Site
					{
						OFFSET 0.000000 3.130435 0.000000 
					}
				}
			}
			JOINT lCollar
			{
				OFFSET 3.470700 6.669187 -0.816635 
				CHANNELS 3 Yrotation Zrotation Xrotation
				JOINT lShldr
				{
					OFFSET 3.198488 0.000000 0.000000 
					CHANNELS 3 Zrotation Yrotation Xrotation
					JOINT lForeArm
					{
						OFFSET 10.139888 0.000000 0.000000 
						CHANNELS 3 Yrotation Zrotation Xrotation
						JOINT lHand
						{
							OFFSET 8.370511 0.000000 0.000000 
							CHANNELS 3 Zrotation Yrotation Xrotation
							End Site
							{
								OFFSET 4.083176 0.000000 0.000000 
							}
						}
					}
				}
			}
			JOINT rCollar
			{
				OFFSET -3.470700 6.669187 -0.816635 
				CHANNELS 3 Yrotation Zrotation Xrotation
				JOINT rShldr
				{
					OFFSET -3.198488 0.000000 0.000000 
					CHANNELS 3 Zrotation Yrotation Xrotation
					JOINT rForeArm
					{
						OFFSET -10.139888 0.000000 0.000000 
						CHANNELS 3 Yrotation Zrotation Xrotation
						JOINT rHand
						{
							OFFSET -8.370511 0.000000 0.000000 
							CHANNELS 3 Zrotation Yrotation Xrotation
							End Site
							{
								OFFSET -4.083176 0.000000 0.000000 
							}
						}
					}
				}
			}
		}
	}
	JOINT lThigh
	{
		OFFSET 5.308129 -1.633274 1.361059 
		CHANNELS 3 Xrotation Zrotation Yrotation
		JOINT lShin
		{
			OFFSET -2.041588 -20.007561 0.000000 
			CHANNELS 3 Xrotation Zrotation Yrotation
			JOINT lFoot
			{
				OFFSET 0.000000 -19.190928 -1.224953 
				CHANNELS 3 Xrotation Yrotation Zrotation
				End Site
				{
					OFFSET 0.000000 -2.449906 4.627600 
				}
			}
		}
	}
	JOINT rThigh
	{
		OFFSET -5.308129 -1.633274 1.361059 
		CHANNELS 3 Xrotation Zrotation Yrotation
		JOINT rShin
		{
			OFFSET 2.041588 -20.007561 0.000000 
			CHANNELS 3 Xrotation Zrotation Yrotation
			JOINT rFoot
			{
				OFFSET 0.000000 -19.190928 -1.224953 
				CHANNELS 3 Xrotation Yrotation Zrotation
				End Site
				{
					OFFSET 0.000000 -2.449906 4.627600 
				}
			}
		}
	}
}
MOTION
Frames: 8
Frame Time: 0.033333
0.067433 46.552666 0.056067 1.133434 7.762171 96.433640 0.000000 0.000000 0.000000 16.291462 -2.184118 5.357666 16.644304 4.814819 0.285339 -24.289412 -3.010582 -0.769503 -11.234668 7.214326 25.000000 -84.840057 -0.625566 -4.499017 -53.651066 9.230268 74.634644 -23.261297 -11.988425 -52.891716 -16.932861 -2.779922 23.646011 57.573372 9.783749 63.185539 47.512768 -32.433182 40.358299 42.731941 0.576060 -81.279549 19.615650 6.055003 18.500002 10.599197 6.481963 1.566866 0.514025 -31.197086 2.264685 26.733891 -2.353004 0.143864 4.742418 -4.021952 -1.350979 8.177311 -13.886130 28.404346 
0.130912 46.613178 0.132632 0.928438 8.612168 96.341568 0.000000 0.000000 0.000000 17.237854 -2.788979 5.169810 17.208210 4.630457 0.273102 -25.028849 -2.887565 -0.913186 -10.966842 6.045969 25.000000 -83.718315 -0.413325 -5.128124 -53.811523 9.293336 74.723671 -23.227755 -12.739726 -52.652615 -16.200220 -2.214895 23.864662 57.181583 9.889913 62.950096 47.384090 -32.417484 40.837421 42.177372 0.398818 -81.180374 20.794722 6.543095 18.588549 10.305121 6.208085 1.512233 0.504229 -31.075619 2.299979 27.465099 -2.001625 0.263951 5.026379 -3.952890 -1.348201 8.184766 -13.714639 28.587921 
0.175569 46.668701 0.159218 0.712763 9.432878 96.239891 0.000000 0.000000 0.000000 18.151503 -3.044033 5.066903 17.657421 4.172645 0.233598 -25.374044 -2.673289 -0.914595 -10.712564 5.335985 25.000000 -83.032059 -0.203315 -5.514956 -54.124348 8.958241 74.668137 -23.101425 -13.283060 -52.479897 -15.599901 -1.824443 24.003992 56.742760 10.178920 62.652725 46.851742 -31.769089 39.763752 41.580090 -1.214607 -81.241631 21.916700 6.934201 18.621469 9.973274 5.961939 1.499434 0.559155 -30.934948 2.362769 28.117062 -1.747732 0.353085 5.309682 -3.816453 -1.284516 8.281610 -13.582390 28.845051 
0.206207 46.718319 0.152243 0.436554 10.175491 96.103027 0.000000 0.000000 0.000000 18.961245 -2.928026 5.039294 17.888447 3.556694 0.191968 -25.612104 -2.100055 -0.731029 -10.346243 5.251406 25.000000 -82.998390 -0.103866 -5.534523 -54.438126 8.444410 74.376091 -23.131445 -13.586844 -52.361965 -15.082584 -1.655883 24.085058 56.384022 10.618554 62.378265 46.231319 -31.067820 39.221684 41.156498 -2.036731 -81.219772 22.935097 7.295421 18.663504 9.715046 5.801280 1.474662 0.599588 -30.768858 2.323771 28.729029 -1.464980 0.442498 5.485672 -3.767964 -1.252821 8.506845 -13.402643 29.179996 
0.205981 46.748589 0.059710 0.506702 10.605063 96.236038 0.000000 0.000000 0.000000 19.435722 -2.652467 5.079749 17.881742 3.216682 0.165070 -25.614950 -1.801041 -0.436007 -10.511777 5.577316 25.000000 -83.571266 -0.073608 -5.225723 -54.553421 8.163559 73.867592 -23.023825 -13.847396 -52.293789 -15.092772 -1.676192 24.070313 56.115788 10.984864 62.162926 45.599182 -30.627111 39.097893 41.048534 -1.773559 -81.170258 23.474159 7.080120 18.533745 9.461412 5.957591 1.530597 0.690098 -30.758917 2.297855 29.050652 -1.689289 0.379871 5.670617 -3.534577 -1.185740 8.764561 -13.452103 29.605520 
0.160910 46.745163 -0.080576 0.566152 10.517077 96.226440 0.000000 0.000000 0.000000 19.376829 -1.943923 5.234183 17.623184 2.981836 0.147167 -25.361149 -1.814549 0.030202 -10.547701 6.499982 25.000000 -84.773544 -0.221337 -4.538625 -54.423683 7.720861 73.688675 -22.731361 -13.985046 -52.347450 -15.177104 -2.039372 23.968784 56.124538 11.209744 62.137569 44.738991 -30.381287 38.197830 41.046772 -1.402470 -81.160439 23.371115 6.689814 18.382454 9.338261 6.188199 1.583480 0.802355 -30.648212 2.321542 28.805964 -2.021549 0.276726 5.843604 -3.336703 -1.138891 8.867826 -13.458405 29.669235 
0.096947 46.733845 -0.213292 0.307734 10.341651 95.876411 0.000000 0.000000 0.000000 19.181141 -0.691765 5.530749 17.305990 2.720618 0.130023 -25.347736 -2.082299 0.502711 -10.203230 7.075347 25.000000 -85.608665 -0.360801 -4.073376 -54.344074 7.022586 74.063034 -22.791533 -13.967348 -52.313602 -15.047854 -2.529371 23.836323 56.292576 11.335481 62.207104 43.921455 -30.425522 37.317951 41.239536 -1.079315 -81.163185 23.224844 6.631758 18.366262 9.290557 6.245177 1.625373 0.872838 -30.257536 2.252158 28.454897 -2.002393 0.272200 5.926385 -3.407584 -1.130510 8.703361 -13.246005 29.299767 
0.052956 46.735569 -0.293712 -0.476565 10.390273 95.091240 0.000000 0.000000 0.000000 19.125515 1.208705 5.956338 17.162996 2.283047 0.097555 -25.522150 -2.393525 1.025303 -9.521162 6.920291 25.000000 -85.636368 -0.195939 -4.054324 -54.508556 6.088370 75.019051 -22.917662 -13.443590 -52.427509 -14.620942 -2.975813 23.739338 56.507320 11.493029 62.304131 42.932713 -30.392719 35.634399 41.636826 -0.813991 -81.236641 23.466146 7.276086 18.589146 9.265138 5.958519 1.557381 0.842635 -29.510246 2.120110 28.386221 -1.249994 0.499324 5.711051 -3.924554 -1.276166 8.626825 -12.591467 28.838531 
